<svg width="36" height="21" viewBox="0 0 36 21" fill="none" xmlns="http://www.w3.org/2000/svg">
<path d="M35.1795 1.42406C35.4268 0.60375 35.1795 0 33.99 0H30.0536C29.0512 0 28.5901 0.518437 28.3428 1.09594C28.3428 1.09594 26.3379 5.89312 23.5043 9.00375C22.5887 9.90281 22.1677 10.1916 21.6664 10.1916C21.4192 10.1916 21.0382 9.90281 21.0382 9.0825V1.42406C21.0382 0.439687 20.7575 0 19.9288 0H13.7403C13.1121 0 12.7379 0.459375 12.7379 0.885937C12.7379 1.81781 14.1547 2.03437 14.3017 4.65937V10.3556C14.3017 11.6025 14.0745 11.8322 13.5733 11.8322C12.2367 11.8322 8.98869 7.01531 7.06398 1.50281C6.67636 0.433125 6.29543 0 5.28629 0H1.34997C0.227223 0 0 0.518437 0 1.09594C0 2.11969 1.33661 7.20563 6.22191 13.9256C9.47656 18.5128 14.0611 21 18.2313 21C20.7375 21 21.0449 20.4487 21.0449 19.4972C21.0449 15.1134 20.8177 14.7 22.0741 14.7C22.6555 14.7 23.658 14.9887 25.997 17.2003C28.6703 19.8253 29.1113 21 30.6083 21H34.5447C35.6674 21 36.2355 20.4487 35.908 19.3594C35.1595 17.0691 30.1004 12.3572 29.8732 12.0422C29.2918 11.3072 29.4589 10.9791 29.8732 10.3228C29.8799 10.3162 34.685 3.675 35.1795 1.42406Z" fill="#EFEFEF"/>
</svg>
