<svg preserveAspectRatio="none" width="100%" height="100%" overflow="visible" style="display: block;" viewBox="0 0 23.7698 29.0853" fill="none" xmlns="http://www.w3.org/2000/svg">
<g id="Group">
<g id="Vector">
</g>
<path id="Vector_2" d="M9.76977 5.33333C10.6161 5.3332 11.4307 5.65498 12.0485 6.23339C12.6663 6.8118 13.0409 7.60353 13.0964 8.448L13.1031 8.66667V14.8067L19.0431 15.6147C20.298 15.7583 21.4612 16.3427 22.3255 17.2637C23.1899 18.1847 23.6993 19.3825 23.7631 20.644L23.7698 20.9133V21.3333C23.7704 22.267 23.6485 23.1967 23.4071 24.0987C22.9724 25.7253 21.4924 26.5787 20.0764 26.66L19.8524 26.6667H6.7511C6.05344 26.6666 5.36793 26.4841 4.76261 26.1372C4.15729 25.7904 3.65322 25.2912 3.30043 24.6893L3.17377 24.456L0.208434 18.5253C-0.271566 17.5653 0.0844347 16.2813 1.20443 15.8213C2.5951 15.252 3.91643 15.1467 5.27777 15.8373C5.57377 15.9884 5.86443 16.1724 6.14977 16.3893L6.43643 16.616V8.66667C6.43643 7.78261 6.78762 6.93476 7.41274 6.30964C8.03787 5.68452 8.88571 5.33333 9.76977 5.33333ZM9.76977 2.39856e-07C11.1097 -0.00024712 12.4315 0.310216 13.6312 0.906999C14.831 1.50378 15.876 2.37063 16.6842 3.43943C17.4924 4.50823 18.0417 5.74988 18.2891 7.06682C18.5364 8.38376 18.4751 9.74012 18.1098 11.0293C18.0071 11.3619 17.7784 11.6412 17.4725 11.8074C17.1667 11.9737 16.808 12.0137 16.473 11.919C16.138 11.8243 15.8534 11.6024 15.6799 11.3006C15.5064 10.9988 15.4578 10.6411 15.5444 10.304C15.8104 9.364 15.8428 8.37328 15.6388 7.41791C15.4349 6.46254 15.0008 5.57142 14.3741 4.82196C13.7475 4.0725 12.9474 3.48738 12.0433 3.11743C11.1391 2.74748 10.1583 2.60389 9.18609 2.69913C8.21385 2.79437 7.27957 3.12557 6.46441 3.66394C5.64925 4.20232 4.97788 4.93159 4.50862 5.7884C4.03936 6.64521 3.78641 7.60365 3.77174 8.58043C3.75707 9.55722 3.98112 10.5228 4.42443 11.3933C4.58533 11.7084 4.61448 12.0745 4.50546 12.4111C4.39643 12.7476 4.15818 13.0271 3.8431 13.188C3.52802 13.3489 3.16193 13.378 2.82537 13.269C2.4888 13.16 2.20933 12.9217 2.04843 12.6067C1.37399 11.2853 1.05003 9.8129 1.10759 8.33046C1.16514 6.84803 1.60227 5.40518 2.37713 4.14007C3.15198 2.87495 4.23863 1.82992 5.53302 1.10503C6.82741 0.380137 8.28622 -0.000348747 9.76977 2.39856e-07Z" fill="url(#paint0_linear_0_4)"/>
</g>
<defs>
<linearGradient id="paint0_linear_0_4" x1="17.5066" y1="23.5374" x2="3.25547" y2="1.41867" gradientUnits="userSpaceOnUse">
<stop stop-color="#CDCDCD"/>
<stop offset="1" stop-color="#E1E1E1"/>
</linearGradient>
</defs>
</svg>
