<svg width="32" height="32" viewBox="0 0 32 32" fill="none" xmlns="http://www.w3.org/2000/svg">
<rect width="32" height="32" rx="2.18182" fill="url(#paint0_linear_172_3163)"/>
<path d="M19.3337 11.3946C19.4033 11.325 19.4861 11.2698 19.5771 11.2322C19.6681 11.1945 19.7656 11.1752 19.8641 11.1753C19.9626 11.1753 20.0601 11.1948 20.1511 11.2326C20.2421 11.2703 20.3247 11.3256 20.3943 11.3953C20.4639 11.465 20.5191 11.5477 20.5567 11.6387C20.5944 11.7297 20.6137 11.8273 20.6136 11.9258C20.6136 12.0243 20.5941 12.1218 20.5564 12.2127C20.5186 12.3037 20.4633 12.3864 20.3936 12.456L19.3337 11.3946ZM19.0643 12.7239L18.5339 12.1936L18.5343 12.1933L19.0643 12.7239ZM16.046 16.8029C15.9053 16.9435 15.7145 17.0226 15.5156 17.0226C15.3167 17.0226 15.126 16.9435 14.9853 16.8029C14.8447 16.6622 14.7656 16.4715 14.7656 16.2726C14.7656 16.0737 14.8447 15.8829 14.9853 15.7422L16.046 16.8029ZM14.9788 15.7488C15.1194 15.6081 15.3102 15.5291 15.5091 15.5291C15.708 15.5291 15.8988 15.6081 16.0394 15.7488C16.1801 15.8894 16.2591 16.0802 16.2591 16.2791C16.2591 16.478 16.1801 16.6688 16.0394 16.8094L14.9788 15.7488ZM12.2092 20.6397C12.0686 20.7803 11.8778 20.8593 11.6789 20.8593C11.48 20.8593 11.2892 20.7803 11.1485 20.6397C11.0079 20.499 10.9289 20.3082 10.9289 20.1093C10.9289 19.9104 11.0079 19.7196 11.1485 19.579L12.2092 20.6397ZM20.3936 12.456L20.3804 12.4692L19.3202 11.408L19.3337 11.3946L20.3936 12.456ZM20.3804 12.4692L20.223 12.6265L19.1632 11.565L19.3202 11.408L20.3804 12.4692ZM20.223 12.6265L20.066 12.7835L19.0061 11.7222L19.1632 11.565L20.223 12.6265ZM20.066 12.7835L19.9085 12.9407L18.8488 11.8791L19.0061 11.7222L20.066 12.7835ZM19.9085 12.9407L19.7514 13.0975L18.6914 12.0361L18.8488 11.8791L19.9085 12.9407ZM19.7514 13.0975L19.5942 13.2546L18.5343 12.1933L18.6914 12.0361L19.7514 13.0975ZM19.5946 13.2543L16.046 16.8029L14.9853 15.7422L18.5339 12.1936L19.5946 13.2543ZM16.0394 16.8094L12.2092 20.6397L11.1485 19.579L14.9788 15.7488L16.0394 16.8094Z" fill="white"/>
<path d="M11.6849 11.3161L19.1719 11.3162C19.3443 11.3162 19.515 11.3502 19.6742 11.4161C19.8335 11.4821 19.9782 11.5788 20.1001 11.7007C20.222 11.8225 20.3186 11.9672 20.3846 12.1265C20.4506 12.2858 20.4845 12.4564 20.4845 12.6288L20.4843 20.1158" stroke="white" stroke-width="1.5" stroke-linecap="round" stroke-linejoin="round"/>
<defs>
<linearGradient id="paint0_linear_172_3163" x1="5.52727" y1="25.8909" x2="25.6" y2="6.69091" gradientUnits="userSpaceOnUse">
<stop stop-color="#3F8D50"/>
<stop offset="1" stop-color="#51A462"/>
</linearGradient>
</defs>
</svg>
