<svg width="55" height="55" viewBox="0 0 55 55" fill="none" xmlns="http://www.w3.org/2000/svg">
<path d="M46.2073 18.7079C40.7314 18.7079 36.2909 14.2673 36.2909 8.79123C36.2909 3.93718 32.3557 0 27.5 0C22.6443 0 18.7073 3.93718 18.7073 8.79123C18.7073 14.2673 14.2686 18.7079 8.79274 18.7079C3.93704 18.7079 0 22.6432 0 27.5009C0 32.3567 3.93704 36.2921 8.79274 36.2921C14.2686 36.2921 18.7073 40.7309 18.7073 46.207C18.7073 51.0646 22.6443 55 27.5 55C32.3557 55 36.2909 51.0646 36.2909 46.207C36.2909 40.7309 40.7314 36.2921 46.2073 36.2921C51.063 36.2921 55 32.3567 55 27.5009C55 22.6432 51.063 18.7079 46.2073 18.7079Z" fill="url(#paint0_linear_172_2770)"/>
<defs>
<linearGradient id="paint0_linear_172_2770" x1="9.5" y1="10.5" x2="44" y2="43.5" gradientUnits="userSpaceOnUse">
<stop stop-color="#3F8D50"/>
<stop offset="1" stop-color="#51A462"/>
</linearGradient>
</defs>
</svg>
