<svg width="20" height="20" viewBox="0 0 20 20" fill="none" xmlns="http://www.w3.org/2000/svg">
<circle cx="10" cy="10" r="10" fill="url(#paint0_linear_172_2711)"/>
<path d="M8.38609 13.0321L6.12803 10.774C6.06898 10.7142 5.99866 10.6668 5.92114 10.6344C5.84361 10.602 5.76043 10.5853 5.67642 10.5853C5.5924 10.5853 5.50922 10.602 5.4317 10.6344C5.35417 10.6668 5.28385 10.7142 5.2248 10.774C5.16504 10.833 5.11758 10.9034 5.0852 10.9809C5.05281 11.0584 5.03613 11.1416 5.03613 11.2256C5.03613 11.3096 5.05281 11.3928 5.0852 11.4703C5.11758 11.5479 5.16504 11.6182 5.2248 11.6772L7.92803 14.3805C8.17964 14.6321 8.58609 14.6321 8.83771 14.3805L15.6764 7.5482C15.7362 7.48915 15.7836 7.41882 15.816 7.3413C15.8484 7.26378 15.8651 7.1806 15.8651 7.09658C15.8651 7.01257 15.8484 6.92939 15.816 6.85186C15.7836 6.77434 15.7362 6.70402 15.6764 6.64497C15.6174 6.5852 15.547 6.53775 15.4695 6.50536C15.392 6.47298 15.3088 6.4563 15.2248 6.4563C15.1408 6.4563 15.0576 6.47298 14.9801 6.50536C14.9026 6.53775 14.8322 6.5852 14.7732 6.64497L8.38609 13.0321Z" fill="#EFEFEF"/>
<defs>
<linearGradient id="paint0_linear_172_2711" x1="3.45455" y1="16.1818" x2="16" y2="4.18182" gradientUnits="userSpaceOnUse">
<stop stop-color="#3F8D50"/>
<stop offset="1" stop-color="#51A462"/>
</linearGradient>
</defs>
</svg>
